<svg version="1.1" id="Layer_1" xmlns="http://www.w3.org/2000/svg" xmlns:xlink="http://www.w3.org/1999/xlink" x="0px" y="0px"
	 width="100%" viewBox="0 0 100 100" enable-background="new 0 0 100 100" xml:space="preserve">
<path fill="#010202" opacity="1.000000" stroke="none" 
	d="
M62.000000,101.000000 
	C41.333336,101.000000 21.166674,101.000000 1.000008,101.000000 
	C1.000005,67.666679 1.000005,34.333351 1.000003,1.000021 
	C34.333317,1.000014 67.666634,1.000014 100.999969,1.000007 
	C100.999977,34.333313 100.999977,67.666626 100.999985,100.999969 
	C88.166664,101.000000 75.333336,101.000000 62.000000,101.000000 
M77.182648,60.034752 
	C75.831909,61.183445 74.481163,62.332138 73.064087,62.646984 
	C72.986290,62.095779 72.908493,61.544579 72.966576,60.106583 
	C73.066360,51.390377 73.360664,52.970463 65.668793,52.829670 
	C64.858231,52.814835 64.049538,52.698147 63.239021,51.827076 
	C62.963257,45.721668 62.235355,45.013813 56.165195,44.971069 
	C54.669067,44.960537 53.172779,44.975189 51.676609,44.968292 
	C45.460602,44.939636 44.357296,43.793240 45.135597,37.190876 
	C47.100327,37.170326 49.115429,37.406662 51.011272,37.034859 
	C52.186966,36.804287 54.098534,35.650711 54.098404,34.911724 
	C54.097843,31.766090 53.507278,28.620562 53.902851,24.881226 
	C53.914387,24.253675 53.925922,23.626123 54.204811,22.137457 
	C54.351505,14.001095 54.351505,14.001074 46.219635,14.000965 
	C42.896637,14.000920 39.544987,14.275063 36.257923,13.931389 
	C32.181072,13.505141 30.801950,15.273631 31.091841,19.021973 
	C31.193909,20.341734 31.248079,21.665201 31.112436,23.802916 
	C31.183767,25.199347 31.255098,26.595778 31.125402,28.731014 
	C31.194927,29.487202 31.264452,30.243389 31.126377,31.775879 
	C31.197403,32.837891 31.268427,33.899902 31.378887,35.757782 
	C34.549175,36.246159 37.719460,36.734535 41.037743,38.020752 
	C40.855309,44.018078 39.973343,44.910439 34.146057,44.967068 
	C32.665440,44.981457 31.184561,44.966217 29.703815,44.969898 
	C22.901331,44.986813 22.147667,45.741940 21.148832,52.806263 
	C11.796155,52.914436 11.796155,52.914436 12.022113,60.840397 
	C12.071622,62.557396 12.121131,64.274399 12.025549,66.815247 
	C12.070709,68.205940 12.115869,69.596642 12.016608,71.828506 
	C13.071246,72.886375 14.076713,74.793999 15.188840,74.858360 
	C20.667036,75.175354 26.176172,74.901184 31.668997,75.043556 
	C34.852940,75.126083 35.360733,73.575066 34.894653,70.156052 
	C34.835091,68.765388 34.775528,67.374718 34.890984,65.139931 
	C34.833923,63.421783 34.776863,61.703636 34.895920,59.116478 
	C35.746002,54.380119 34.287674,51.880619 28.993484,52.799648 
	C27.739883,53.017265 26.393263,52.699036 25.094873,51.810326 
	C24.567493,48.638649 26.100534,47.973900 29.033138,47.894646 
	C33.649235,47.769886 38.249310,47.052296 42.749172,46.596531 
	C48.349106,47.281689 54.071060,47.981773 59.960850,48.702393 
	C60.048286,50.002777 60.136517,51.314938 59.290005,52.799351 
	C50.037201,52.924618 50.037201,52.924618 50.603588,61.844639 
	C50.686367,63.567745 50.769146,65.290848 50.612087,67.897331 
	C50.512470,74.937263 50.512516,74.931770 57.534023,74.991249 
	C58.669502,75.000862 59.804367,75.083847 60.689072,75.733879 
	C57.411991,79.032097 53.933254,82.157867 50.919899,85.681602 
	C48.385654,88.645088 47.374352,92.210045 50.349689,95.599388 
	C52.973511,98.588303 56.970390,98.557381 60.503624,95.122520 
	C69.903503,85.984337 79.096542,76.633408 88.901192,67.092796 
	C89.601440,66.404846 90.301689,65.716888 91.785072,65.103561 
	C95.998833,64.877472 95.738869,62.823505 93.506042,60.411118 
	C91.759575,58.524181 89.683243,56.934464 87.697563,55.279781 
	C86.291389,54.108006 84.791870,53.048237 83.334015,51.938469 
	C82.448738,53.545918 81.563461,55.153366 80.120338,57.014565 
	C79.344879,57.944351 78.569420,58.874138 77.182648,60.034752 
z"/>
<path fill="#03BAA1" opacity="1.000000" stroke="none" 
	d="
M88.371834,67.367073 
	C79.096542,76.633408 69.903503,85.984337 60.503624,95.122520 
	C56.970390,98.557381 52.973511,98.588303 50.349689,95.599388 
	C47.374352,92.210045 48.385654,88.645088 50.919899,85.681602 
	C53.933254,82.157867 57.411991,79.032097 61.070747,75.358444 
	C61.628922,74.958763 61.805420,74.934502 62.412788,74.950394 
	C63.425430,75.027534 64.007202,75.064529 64.341545,75.354630 
	C59.690796,80.007698 55.287468,84.407661 50.884140,88.807632 
	C51.498661,89.420143 52.113186,90.032654 52.727707,90.645164 
	C60.183964,83.467430 67.640221,76.289696 75.400146,68.984352 
	C76.513283,68.534912 77.322739,68.213074 78.565102,67.927811 
	C82.122620,67.765289 85.247223,67.566185 88.371834,67.367073 
z"/>
<path fill="#98EAFF" opacity="1.000000" stroke="none" 
	d="
M31.324118,22.986977 
	C31.248079,21.665201 31.193909,20.341734 31.091841,19.021973 
	C30.801950,15.273631 32.181072,13.505141 36.257923,13.931389 
	C39.544987,14.275063 42.896637,14.000920 46.219635,14.000965 
	C54.351505,14.001074 54.351505,14.001095 53.606644,22.564663 
	C45.780354,22.990238 38.552235,22.988607 31.324118,22.986977 
z"/>
<path fill="#AFE936" opacity="1.000000" stroke="none" 
	d="
M50.852505,61.014412 
	C50.037201,52.924618 50.037201,52.924618 60.129322,52.794319 
	C61.725750,52.735764 62.482864,52.682240 63.239975,52.628712 
	C64.049538,52.698147 64.858231,52.814835 65.668793,52.829670 
	C73.360664,52.970463 73.066360,51.390377 72.440994,60.551952 
	C64.894447,61.003017 57.873478,61.008713 50.852505,61.014412 
z"/>
<path fill="#0270C2" opacity="1.000000" stroke="none" 
	d="
M63.239498,52.227894 
	C62.482864,52.682240 61.725750,52.735764 60.596695,52.708191 
	C60.136517,51.314938 60.048286,50.002777 59.960850,48.702393 
	C54.071060,47.981773 48.349106,47.281689 42.749172,46.596531 
	C38.249310,47.052296 33.649235,47.769886 29.033138,47.894646 
	C26.100534,47.973900 24.567493,48.638649 24.717857,52.309349 
	C23.577971,52.748562 22.815100,52.688751 22.052227,52.628941 
	C22.147667,45.741940 22.901331,44.986813 29.703815,44.969898 
	C31.184561,44.966217 32.665440,44.981457 34.146057,44.967068 
	C39.973343,44.910439 40.855309,44.018078 41.383331,37.563339 
	C42.577484,37.166508 43.426044,37.227089 44.274609,37.287666 
	C44.357296,43.793240 45.460602,44.939636 51.676609,44.968292 
	C53.172779,44.975189 54.669067,44.960537 56.165195,44.971069 
	C62.235355,45.013813 62.963257,45.721668 63.239498,52.227894 
z"/>
<path fill="#B0E936" opacity="1.000000" stroke="none" 
	d="
M21.600529,52.717602 
	C22.815100,52.688751 23.577971,52.748562 24.715137,52.717831 
	C26.393263,52.699036 27.739883,53.017265 28.993484,52.799648 
	C34.287674,51.880619 35.746002,54.380119 34.357544,59.552204 
	C26.601974,59.989464 19.384777,59.990997 12.167579,59.992531 
	C11.796155,52.914436 11.796155,52.914436 21.600529,52.717602 
z"/>
<path fill="#A4E435" opacity="1.000000" stroke="none" 
	d="
M12.094846,60.416466 
	C19.384777,59.990997 26.601974,59.989464 34.269485,59.986710 
	C34.776863,61.703636 34.833923,63.421783 34.353508,65.563271 
	C26.600899,65.988205 19.385771,65.989799 12.170641,65.991394 
	C12.121131,64.274399 12.071622,62.557396 12.094846,60.416466 
z"/>
<path fill="#A0E339" opacity="1.000000" stroke="none" 
	d="
M50.728046,61.429527 
	C57.873478,61.008713 64.894447,61.003017 72.373062,60.995346 
	C72.908493,61.544579 72.986290,62.095779 73.020920,63.307037 
	C72.967270,64.308273 72.956795,64.649460 72.968834,64.999924 
	C72.991348,65.009193 72.999786,64.960876 72.719589,65.025970 
	C72.271500,65.419365 72.103607,65.747658 71.882950,66.359024 
	C71.788872,67.021866 71.747566,67.401619 71.524750,67.746994 
	C71.343231,67.712608 70.974449,67.735451 70.772964,67.594803 
	C69.800453,67.667931 69.029434,67.881706 67.830948,68.015503 
	C61.886299,67.628334 56.369114,67.321144 50.851925,67.013954 
	C50.769146,65.290848 50.686367,63.567745 50.728046,61.429527 
z"/>
<path fill="#98DF34" opacity="1.000000" stroke="none" 
	d="
M12.098095,66.403320 
	C19.385771,65.989799 26.600899,65.988205 34.265999,65.985336 
	C34.775528,67.374718 34.835091,68.765388 34.361397,70.570114 
	C26.605770,70.985237 19.383400,70.986290 12.161029,70.987335 
	C12.115869,69.596642 12.070709,68.205940 12.098095,66.403320 
z"/>
<path fill="#93DC35" opacity="1.000000" stroke="none" 
	d="
M50.732006,67.455643 
	C56.369114,67.321144 61.886299,67.628334 67.653564,68.303749 
	C65.929733,70.751396 63.955822,72.830826 61.981915,74.910248 
	C61.805420,74.934502 61.628922,74.958763 61.195969,75.057968 
	C59.804367,75.083847 58.669502,75.000862 57.534023,74.991249 
	C50.512516,74.931770 50.512470,74.937263 50.732006,67.455643 
z"/>
<path fill="#82E6FB" opacity="1.000000" stroke="none" 
	d="
M31.218277,23.394947 
	C38.552235,22.988607 45.780354,22.990238 53.472969,22.995222 
	C53.925922,23.626123 53.914387,24.253675 53.409832,25.409018 
	C52.822582,26.626547 52.728355,27.316284 52.188530,28.003675 
	C44.937428,27.998289 38.131927,27.995249 31.326429,27.992208 
	C31.255098,26.595778 31.183767,25.199347 31.218277,23.394947 
z"/>
<path fill="#8DD332" opacity="1.000000" stroke="none" 
	d="
M12.088819,71.407921 
	C19.383400,70.986290 26.605770,70.985237 34.278889,70.981285 
	C35.360733,73.575066 34.852940,75.126083 31.668997,75.043556 
	C26.176172,74.901184 20.667036,75.175354 15.188840,74.858360 
	C14.076713,74.793999 13.071246,72.886375 12.088819,71.407921 
z"/>
<path fill="#60E7FF" opacity="1.000000" stroke="none" 
	d="
M31.339453,34.961914 
	C31.268427,33.899902 31.197403,32.837891 31.677286,31.385895 
	C39.134010,30.997025 46.039825,30.998137 52.954376,31.415333 
	C51.700336,32.894131 50.482510,34.804176 49.167061,34.873955 
	C43.239651,35.188385 37.284565,34.981129 31.339453,34.961914 
z"/>
<path fill="#4C7EA7" opacity="1.000000" stroke="none" 
	d="
M80.678177,56.760811 
	C81.563461,55.153366 82.448738,53.545918 83.334015,51.938469 
	C84.791870,53.048237 86.291389,54.108006 87.697563,55.279781 
	C89.683243,56.934464 91.759575,58.524181 93.506042,60.411118 
	C95.738869,62.823505 95.998833,64.877472 91.236771,64.765900 
	C88.130592,62.278484 85.572716,60.128738 82.763634,57.972942 
	C82.345795,57.950161 82.179169,57.933422 81.834557,57.677681 
	C81.330444,57.212723 81.004311,56.986767 80.678177,56.760811 
z"/>
<path fill="#5AA0B7" opacity="1.000000" stroke="none" 
	d="
M83.014839,57.978989 
	C85.572716,60.128738 88.130592,62.278484 90.845207,64.728584 
	C90.301689,65.716888 89.601440,66.404846 88.636513,67.229935 
	C85.247223,67.566185 82.122620,67.765289 78.621727,67.610771 
	C79.837440,64.165558 85.215775,63.020317 83.014839,57.978989 
z"/>
<path fill="#71E8FF" opacity="1.000000" stroke="none" 
	d="
M52.945641,30.999249 
	C46.039825,30.998137 39.134010,30.997025 31.781086,30.997744 
	C31.264452,30.243389 31.194927,29.487202 31.225916,28.361610 
	C38.131927,27.995249 44.937428,27.998289 52.318138,28.246412 
	C52.910778,29.327412 52.928207,30.163330 52.945641,30.999249 
z"/>
<path fill="#57D4E9" opacity="1.000000" stroke="none" 
	d="
M52.954376,31.415333 
	C52.928207,30.163330 52.910778,29.327412 52.763737,28.248756 
	C52.728355,27.316284 52.822582,26.626547 53.024460,25.705902 
	C53.507278,28.620562 54.097843,31.766090 54.098404,34.911724 
	C54.098534,35.650711 52.186966,36.804287 51.011272,37.034859 
	C49.115429,37.406662 47.100327,37.170326 44.705101,37.239273 
	C43.426044,37.227089 42.577484,37.166508 41.309334,37.164421 
	C37.719460,36.734535 34.549175,36.246159 31.359169,35.359848 
	C37.284565,34.981129 43.239651,35.188385 49.167061,34.873955 
	C50.482510,34.804176 51.700336,32.894131 52.954376,31.415333 
z"/>
<path fill="#5AA0B7" opacity="1.000000" stroke="none" 
	d="
M72.946320,64.990646 
	C72.956795,64.649460 72.967270,64.308273 73.054085,63.723957 
	C74.481163,62.332138 75.831909,61.183445 77.667068,60.094566 
	C78.270424,60.271435 78.389366,60.388481 78.326180,60.778648 
	C76.411476,62.364731 74.678894,63.677689 72.946320,64.990646 
z"/>
<path fill="#5AA0B7" opacity="1.000000" stroke="none" 
	d="
M80.399261,56.887688 
	C81.004311,56.986767 81.330444,57.212723 81.657837,57.942047 
	C80.608833,59.132122 79.558563,59.818825 78.508301,60.505524 
	C78.389366,60.388481 78.270424,60.271435 77.972717,59.979153 
	C78.569420,58.874138 79.344879,57.944351 80.399261,56.887688 
z"/>
<path fill="#7EDED1" opacity="1.000000" stroke="none" 
	d="
M70.974449,67.735451 
	C70.974449,67.735451 71.343231,67.712608 71.897820,67.813751 
	C73.333763,68.313919 74.215118,68.712936 75.096474,69.111961 
	C67.640221,76.289696 60.183964,83.467430 52.727707,90.645164 
	C52.113186,90.032654 51.498661,89.420143 50.884140,88.807632 
	C55.287468,84.407661 59.690796,80.007698 64.618652,75.257362 
	C67.086937,72.516479 69.030693,70.125961 70.974449,67.735451 
z"/>
<path fill="#AACCDB" opacity="1.000000" stroke="none" 
	d="
M75.400146,68.984352 
	C74.215118,68.712936 73.333763,68.313919 72.079330,67.848137 
	C71.747566,67.401619 71.788872,67.021866 72.132263,66.245148 
	C72.622826,65.552422 72.811310,65.256653 72.999786,64.960876 
	C72.999786,64.960876 72.991348,65.009193 72.968826,64.999924 
	C74.678894,63.677689 76.411476,62.364731 78.326180,60.778648 
	C79.558563,59.818825 80.608833,59.132122 81.835815,58.181053 
	C82.179169,57.933422 82.345795,57.950161 82.763634,57.972942 
	C85.215775,63.020317 79.837440,64.165558 78.188820,67.574188 
	C77.322739,68.213074 76.513283,68.534912 75.400146,68.984352 
z"/>
<path fill="#2ACA9E" opacity="1.000000" stroke="none" 
	d="
M70.772964,67.594803 
	C69.030693,70.125961 67.086937,72.516479 64.866074,75.004257 
	C64.007202,75.064529 63.425430,75.027534 62.412788,74.950394 
	C63.955822,72.830826 65.929733,70.751396 68.081024,68.383728 
	C69.029434,67.881706 69.800453,67.667931 70.772964,67.594803 
z"/>
<path fill="#5AA0B7" opacity="1.000000" stroke="none" 
	d="
M72.719589,65.025970 
	C72.811310,65.256653 72.622826,65.552422 72.185028,65.962074 
	C72.103607,65.747658 72.271500,65.419365 72.719589,65.025970 
z"/>
</svg>