<?xml version="1.0" encoding="UTF-8"?>
<svg version="1.1" xmlns="http://www.w3.org/2000/svg" width="150" height="150">
<path d="M0 0 C0.99 0 1.98 0 3 0 C10.13494831 14.90670617 9.7086251 29.31243957 9.375 45.5625 C9.34483953 48.13473414 9.31747457 50.70700265 9.29296875 53.27929688 C9.22751318 59.52029342 9.12765351 65.75998167 9 72 C9.62704834 72.29946533 10.25409668 72.59893066 10.90014648 72.9074707 C15.56061462 75.33225793 18.38298273 79.88936891 20.875 84.375 C22.81457654 90.62474664 23.02344877 95.60986597 20.0625 101.5625 C11.95119161 114.56778216 -2.63021207 120.56374636 -17 124 C-41.68235845 129.11515493 -71.80025963 128.30825306 -93.64453125 114.3046875 C-99.47386001 109.993111 -106.29296245 104.34026146 -108 97 C-108.76858159 90.08276568 -108.06154369 84.73603977 -104 79 C-100.56758741 74.87622468 -97.31768771 71.45027847 -92 70 C-92.02320313 69.39414063 -92.04640625 68.78828125 -92.0703125 68.1640625 C-92.40675384 52.54357188 -92.40675384 52.54357188 -88.48828125 48.40234375 C-87.99714844 47.93957031 -87.50601563 47.47679687 -87 47 C-86.67 46.01 -86.34 45.02 -86 44 C-83.94420664 42.58221148 -82.63408214 41.97886393 -80.125 42.0625 C-76.06365686 43.85426903 -72.89509259 46.494617 -70.625 50.3125 C-69.77631643 53.96183937 -69.8730718 57.25561812 -70 61 C-68.9275 60.71125 -67.855 60.4225 -66.75 60.125 C-61.22879652 58.73476891 -55.62089698 57.88060719 -50 57 C-51.051875 56.773125 -52.10375 56.54625 -53.1875 56.3125 C-58.1446881 54.89043796 -60.65008465 51.73560544 -63.75 47.75 C-65.49145705 43.91879449 -65.73669688 40.1674528 -66 36 C-63.1651087 36.62246574 -60.76462294 37.49876921 -58.1796875 38.8125 C-57.47972656 39.16570313 -56.77976563 39.51890625 -56.05859375 39.8828125 C-55.33800781 40.25148437 -54.61742187 40.62015625 -53.875 41 C-53.14667969 41.36867187 -52.41835937 41.73734375 -51.66796875 42.1171875 C-49.77700939 43.07490074 -47.88834878 44.03714963 -46 45 C-45.01 45.495 -45.01 45.495 -44 46 C-43.938125 45.34 -43.87625 44.68 -43.8125 44 C-43.01446222 41.05339897 -42.08597892 39.53180752 -40.375 37.0625 C-38.28484686 33.91882672 -38.28484686 33.91882672 -38.1875 30.1875 C-38.5896875 28.6096875 -38.5896875 28.6096875 -39 27 C-39.1119195 23.33209287 -39.05875332 19.66881852 -39 16 C-33.01006953 15.6847405 -29.36439644 16.31780178 -24 19 C-23.64949536 24.841744 -23.83272665 28.8531808 -27 34 C-26.2575 34.144375 -25.515 34.28875 -24.75 34.4375 C-20.50590979 36.84891489 -19.29679149 40.4080826 -18 45 C-17.70640734 48.09437339 -17.80199743 50.88145956 -18 54 C-19.32 54 -20.64 54 -22 54 C-17.88805226 58.60538147 -13.07780134 61.68047734 -7 63 C-7.03665771 61.76660889 -7.07331543 60.53321777 -7.11108398 59.26245117 C-7.23988277 54.59030165 -7.31888873 49.91830044 -7.38452148 45.24487305 C-7.41925573 43.24037104 -7.46666082 41.23603974 -7.52807617 39.23217773 C-7.96259814 24.66656332 -6.03540825 13.30239361 0 0 Z " fill="#F2F3F3" transform="translate(118,10)"/>
<path d="M0 0 C5.98993047 -0.3152595 9.63560356 0.31780178 15 3 C15.35050464 8.841744 15.16727335 12.8531808 12 18 C12.7425 18.144375 13.485 18.28875 14.25 18.4375 C18.49409021 20.84891489 19.70320851 24.4080826 21 29 C21.29359266 32.09437339 21.19800257 34.88145956 21 38 C19.68 38 18.36 38 17 38 C19.74467327 41.05422289 22.64026874 43.08264207 26.17919922 45.14599609 C35.61569149 50.67773294 35.61569149 50.67773294 37.375 55.375 C38 59 38 59 38 62 C36.48706055 63.24267578 36.48706055 63.24267578 34.38671875 64.4453125 C33.63326172 64.88230469 32.87980469 65.31929688 32.10351562 65.76953125 C31.30623047 66.21683594 30.50894531 66.66414063 29.6875 67.125 C28.90181641 67.58003906 28.11613281 68.03507812 27.30664062 68.50390625 C24.21301202 70.27846428 21.39322476 71.86892508 18 73 C18 74.65 18 76.3 18 78 C18.52956299 77.70230713 19.05912598 77.40461426 19.60473633 77.09790039 C22.00583566 75.75009488 24.40913369 74.40625859 26.8125 73.0625 C27.64587891 72.59392578 28.47925781 72.12535156 29.33789062 71.64257812 C30.54155273 70.9706543 30.54155273 70.9706543 31.76953125 70.28515625 C32.50792236 69.87144775 33.24631348 69.45773926 34.00708008 69.03149414 C36 68 36 68 39 67 C39 67.66 39 68.32 39 69 C35.61794651 71.04459897 32.21744543 73.05629449 28.8125 75.0625 C27.85279297 75.64322266 26.89308594 76.22394531 25.90429688 76.82226562 C24.50727539 77.63920898 24.50727539 77.63920898 23.08203125 78.47265625 C22.22843018 78.98062744 21.3748291 79.48859863 20.49536133 80.01196289 C17.49313187 81.20069419 16.04394209 80.95441328 13 80 C10.54296875 78.80859375 10.54296875 78.80859375 8.1875 77.4375 C7.39730469 76.98246094 6.60710937 76.52742188 5.79296875 76.05859375 C5.20128906 75.70925781 4.60960938 75.35992187 4 75 C3.97421875 75.59167969 3.9484375 76.18335937 3.921875 76.79296875 C3.63350385 80.81050323 3.27632803 83.51642594 1.25 87.0625 C-1 89 -1 89 -3.75 89.3125 C-4.4925 89.209375 -5.235 89.10625 -6 89 C-5.690625 88.443125 -5.38125 87.88625 -5.0625 87.3125 C-3.94238179 84.87459567 -3.43962636 82.63775814 -3 80 C-6.9601664 78.67994453 -9.04487672 79.84073973 -13 81 C-15.9375 81.125 -15.9375 81.125 -18 81 C-18 80.01 -18 79.02 -18 78 C-15.03 77.01 -15.03 77.01 -12 76 C-12 75.34 -12 74.68 -12 74 C-12.66 74 -13.32 74 -14 74 C-13.505 73.01 -13.505 73.01 -13 72 C-12.67 72 -12.34 72 -12 72 C-12.54981916 65.95198929 -13.90429574 60.69398894 -16 55 C-15.34 55 -14.68 55 -14 55 C-14.99 51.535 -14.99 51.535 -16 48 C-12.04 45.525 -12.04 45.525 -8 43 C-10.89716613 40.81971563 -10.89716613 40.81971563 -14.375 40.1875 C-19.37744407 38.54876832 -21.5900487 35.81279453 -24.75 31.75 C-26.49145705 27.91879449 -26.73669688 24.1674528 -27 20 C-24.1651087 20.62246574 -21.76462294 21.49876921 -19.1796875 22.8125 C-18.12974609 23.34230469 -18.12974609 23.34230469 -17.05859375 23.8828125 C-16.33800781 24.25148438 -15.61742187 24.62015625 -14.875 25 C-14.14667969 25.36867188 -13.41835937 25.73734375 -12.66796875 26.1171875 C-10.77700939 27.07490074 -8.88834878 28.03714963 -7 29 C-6.34 29.33 -5.68 29.66 -5 30 C-4.9071875 29.01 -4.9071875 29.01 -4.8125 28 C-4.01446222 25.05339897 -3.08597892 23.53180752 -1.375 21.0625 C0.71515314 17.91882672 0.71515314 17.91882672 0.8125 14.1875 C0.544375 13.135625 0.27625 12.08375 0 11 C-0.1119195 7.33209287 -0.05875332 3.66881852 0 0 Z " fill="#445B67" transform="translate(79,26)"/>
<path d="M0 0 C0.99 0 1.98 0 3 0 C9.91700561 14.13811304 9.90765196 28.28272952 9.72729492 43.75244141 C9.68695306 47.22411125 9.69707037 50.69357832 9.72152996 54.16532707 C9.73907056 57.50366221 9.71777593 60.84135422 9.69921875 64.1796875 C9.7096949 66.04510696 9.7096949 66.04510696 9.72038269 67.94821167 C9.7013942 69.09435944 9.6824057 70.2405072 9.6628418 71.42138672 C9.65584763 72.42934296 9.64885345 73.43729919 9.64164734 74.47579956 C9 77 9 77 6.69685364 78.86819458 C3.13775165 80.36186516 0.71352593 79.80095657 -3 79 C-2.34 78.01 -1.68 77.02 -1 76 C-1.66 75.34 -2.32 74.68 -3 74 C-3.268125 72.865625 -3.53625 71.73125 -3.8125 70.5625 C-4.66839717 66.85581114 -4.66839717 66.85581114 -7.625 65.0625 C-8.40875 64.711875 -9.1925 64.36125 -10 64 C-8.515 63.505 -8.515 63.505 -7 63 C-7.03665771 61.76660889 -7.07331543 60.53321777 -7.11108398 59.26245117 C-7.23988277 54.59030165 -7.31888873 49.91830044 -7.38452148 45.24487305 C-7.41925573 43.24037104 -7.46666082 41.23603974 -7.52807617 39.23217773 C-7.96259814 24.66656332 -6.03540825 13.30239361 0 0 Z " fill="#E8E8E8" transform="translate(118,10)"/>
<path d="M0 0 C5.98993047 -0.3152595 9.63560356 0.31780178 15 3 C15.35050464 8.841744 15.16727335 12.8531808 12 18 C12.7425 18.144375 13.485 18.28875 14.25 18.4375 C18.40282489 20.79705959 19.58244818 24.55728171 21 29 C21 29.99 21 30.98 21 32 C14.54246537 34.30822515 7.89246212 36.4228757 1 35 C-0.9375 32.6875 -0.9375 32.6875 -2 30 C-2.96812186 28.96910715 -3.96397519 27.96262796 -5 27 C-4.55527344 26.34773438 -4.11054687 25.69546875 -3.65234375 25.0234375 C-0.10633704 19.94008852 -0.10633704 19.94008852 0.875 14.0625 C0.58625 13.051875 0.2975 12.04125 0 11 C-0.11732853 7.33220819 -0.05875403 3.66886304 0 0 Z " fill="#253946" transform="translate(79,26)"/>
<path d="M0 0 C4.15488337 2.99151602 6.51832094 5.10431389 8 10 C8.37109375 13.62890625 8.37109375 13.62890625 8.4375 17.5625 C8.47746094 18.86316406 8.51742187 20.16382813 8.55859375 21.50390625 C8 25 8 25 5.66015625 27.3515625 C-1.88616821 32.02784579 -1.88616821 32.02784579 -5.5 31.9375 C-9.01214452 30.6204458 -11.24780417 29.62418672 -14 27 C-15.31335657 20.75299093 -14.05654001 12.99365939 -12 7 C-11.02800936 5.97275408 -10.02927496 4.96984176 -9 4 C-8.67 3.01 -8.34 2.02 -8 1 C-5.04691815 -1.03660817 -3.29253002 -1.45258677 0 0 Z " fill="#425760" transform="translate(40,53)"/>
<path d="M0 0 C4.50505453 1.58192755 8.27229941 3.91697036 12.25 6.5 C12.88679688 6.90347656 13.52359375 7.30695313 14.1796875 7.72265625 C18.87473018 10.74946036 18.87473018 10.74946036 20 13 C19.01 13.33 18.02 13.66 17 14 C17.00515625 15.0415625 17.0103125 16.083125 17.015625 17.15625 C15.74957265 21.9477712 14.23882288 22.80799872 10.11328125 25.21875 C9.33339844 25.6415625 8.55351563 26.064375 7.75 26.5 C6.98558594 26.95375 6.22117187 27.4075 5.43359375 27.875 C-0.14700023 31.03637276 -0.14700023 31.03637276 -3.83984375 30.87890625 C-7.09056858 29.55627861 -9.37624056 28.37968879 -12 26 C-13.10832407 21.17087368 -13.10832407 21.17087368 -12 18 C-10.16908097 15.91654042 -8.25955351 14.30407295 -6.04296875 12.640625 C-2.48326362 9.78197078 -1.14226383 7.77598451 -0.3125 3.25 C-0.1578125 1.64125 -0.1578125 1.64125 0 0 Z " fill="#0676CD" transform="translate(95,66)"/>
<path d="M0 0 C-0.0928125 1.670625 -0.0928125 1.670625 -0.1875 3.375 C-0.125625 4.57125 -0.06375 5.7675 0 7 C0.99 7.66 1.98 8.32 3 9 C3 9.66 3 10.32 3 11 C-0.58289877 13.78921866 -4.50665798 16.06797045 -8.375 18.4375 C-9.43589844 19.13810547 -10.49679688 19.83871094 -11.58984375 20.56054688 C-14.73388593 22.47204737 -17.45745701 23.99282865 -21 25 C-24.04961084 24.21983594 -26.16181252 23.03600206 -28.79833984 21.3347168 C-31.87237936 19.47113574 -34.13167195 19.65943878 -37.625 20.1875 C-39.16027344 20.39439453 -39.16027344 20.39439453 -40.7265625 20.60546875 C-41.47679688 20.73566406 -42.22703125 20.86585937 -43 21 C-43.33 20.34 -43.66 19.68 -44 19 C-43.05125 18.731875 -42.1025 18.46375 -41.125 18.1875 C-37.74732727 17.25013412 -37.74732727 17.25013412 -36 14 C-35.54398739 11.49103314 -35.54398739 11.49103314 -35.375 8.8125 C-35.30023438 7.91144531 -35.22546875 7.01039062 -35.1484375 6.08203125 C-35.09945312 5.39496094 -35.05046875 4.70789063 -35 4 C-33.78763672 4.66708984 -33.78763672 4.66708984 -32.55078125 5.34765625 C-31.48214844 5.91355469 -30.41351563 6.47945313 -29.3125 7.0625 C-28.25675781 7.63097656 -27.20101562 8.19945313 -26.11328125 8.78515625 C-22.56385992 10.17018766 -21.52695098 10.30549827 -18 9 C-15.20455966 7.58738503 -12.50833664 6.03060527 -9.8125 4.4375 C-8.38373128 3.59906849 -6.9528374 2.76424466 -5.51953125 1.93359375 C-4.57750854 1.3775647 -4.57750854 1.3775647 -3.61645508 0.81030273 C-2 0 -2 0 0 0 Z " fill="#E2E5E8" transform="translate(117,96)"/>
<path d="M0 0 C3.85517466 2.75827805 3.85517466 2.75827805 4.625 6.1875 C3.9375 10.125 3.9375 10.125 1.48828125 11.8671875 C0.48152344 12.42664063 -0.52523437 12.98609375 -1.5625 13.5625 C-5.63028657 15.62872551 -5.63028657 15.62872551 -7.79296875 19.34375 C-7.80837494 21.80393148 -7.80837494 21.80393148 -7.0625 25.125 C-8.3825 24.795 -9.7025 24.465 -11.0625 24.125 C-11.0625 23.465 -11.0625 22.805 -11.0625 22.125 C-12.0525 22.125 -13.0425 22.125 -14.0625 22.125 C-14.7225 24.435 -15.3825 26.745 -16.0625 29.125 C-17.3825 29.455 -18.7025 29.785 -20.0625 30.125 C-20.02769531 29.20976563 -19.99289063 28.29453125 -19.95703125 27.3515625 C-19.92996094 26.16304687 -19.90289062 24.97453125 -19.875 23.75 C-19.84019531 22.56664063 -19.80539063 21.38328125 -19.76953125 20.1640625 C-19.86621094 19.16117188 -19.96289062 18.15828125 -20.0625 17.125 C-21.0525 16.465 -22.0425 15.805 -23.0625 15.125 C-23.7421875 11.859375 -23.7421875 11.859375 -23.0625 8.125 C-20.78205828 5.6179018 -18.12012004 4.0370326 -15.1875 2.375 C-14.4147876 1.92398926 -13.6420752 1.47297852 -12.84594727 1.00830078 C-8.01776536 -1.5459241 -5.14438829 -2.65756278 0 0 Z " fill="#04416F" transform="translate(57.0625,82.875)"/>
<path d="M0 0 C2.91661185 0.62756881 5.30609005 1.55553601 7.93359375 2.9609375 C8.66513672 3.35023437 9.39667969 3.73953125 10.15039062 4.140625 C10.90513672 4.54796875 11.65988281 4.9553125 12.4375 5.375 C13.56381836 5.97441406 13.56381836 5.97441406 14.71289062 6.5859375 C25.70640072 12.46461309 25.70640072 12.46461309 27.0625 14.9375 C27 17 27 17 25.4375 18.8125 C24.633125 19.534375 23.82875 20.25625 23 21 C21.98766796 22.17700471 20.98841292 23.36533829 20 24.5625 C17.86304718 27.08996196 15.79153954 29.17476261 13 31 C12.34 30.01 11.68 29.02 11 28 C13.64 26.35 16.28 24.7 19 23 C16.10283387 20.81971563 16.10283387 20.81971563 12.625 20.1875 C7.62255593 18.54876832 5.4099513 15.81279453 2.25 11.75 C0.50854295 7.91879449 0.26330312 4.1674528 0 0 Z " fill="#104876" transform="translate(52,46)"/>
<path d="M0 0 C1.875 0.125 1.875 0.125 4 1 C5.38150201 4.17745463 6 6.53122824 6 10 C4.48706055 11.24267578 4.48706055 11.24267578 2.38671875 12.4453125 C1.2565332 13.10080078 1.2565332 13.10080078 0.10351562 13.76953125 C-0.69376953 14.21683594 -1.49105469 14.66414063 -2.3125 15.125 C-3.49102539 15.80755859 -3.49102539 15.80755859 -4.69335938 16.50390625 C-7.78698798 18.27846428 -10.60677524 19.86892508 -14 21 C-14 22.65 -14 24.3 -14 26 C-13.47043701 25.70230713 -12.94087402 25.40461426 -12.39526367 25.09790039 C-9.99416434 23.75009488 -7.59086631 22.40625859 -5.1875 21.0625 C-4.35412109 20.59392578 -3.52074219 20.12535156 -2.66210938 19.64257812 C-1.85966797 19.19462891 -1.05722656 18.74667969 -0.23046875 18.28515625 C0.50792236 17.87144775 1.24631348 17.45773926 2.00708008 17.03149414 C4 16 4 16 7 15 C7 15.66 7 16.32 7 17 C3.61794651 19.04459897 0.21744543 21.05629449 -3.1875 23.0625 C-4.14720703 23.64322266 -5.10691406 24.22394531 -6.09570312 24.82226562 C-7.49272461 25.63920898 -7.49272461 25.63920898 -8.91796875 26.47265625 C-9.77156982 26.98062744 -10.6251709 27.48859863 -11.50463867 28.01196289 C-14.50494457 29.19993256 -15.95628639 28.94377729 -19 28 C-21.421875 26.94921875 -21.421875 26.94921875 -23.75 25.6875 C-24.52859375 25.27886719 -25.3071875 24.87023437 -26.109375 24.44921875 C-28 23 -28 23 -28.79296875 21.00390625 C-29.0515237 18.50128942 -28.60713655 16.42854618 -28 14 C-27.46890625 14.30035156 -26.9378125 14.60070312 -26.390625 14.91015625 C-25.68421875 15.29042969 -24.9778125 15.67070313 -24.25 16.0625 C-23.20585938 16.63677734 -23.20585938 16.63677734 -22.140625 17.22265625 C-19.45342008 18.19848431 -18.64963469 18.06365264 -16 17 C-13.59080682 15.68412428 -11.23002228 14.34322979 -8.875 12.9375 C-2.26538462 9 -2.26538462 9 0 9 C0.33 7.02 0.66 5.04 1 3 C0.34 2.67 -0.32 2.34 -1 2 C-0.67 1.34 -0.34 0.68 0 0 Z " fill="#194D75" transform="translate(111,78)"/>
<path d="M0 0 C5.98993047 -0.3152595 9.63560356 0.31780178 15 3 C15.54330269 9.65545792 14.77304004 13.45834744 11 19 C9.35 19 7.7 19 6 19 C6 18.01 6 17.02 6 16 C4.35 15.67 2.7 15.34 1 15 C-0.00109515 11.68929162 -0.10356134 8.69915231 -0.0625 5.25 C-0.05347656 4.26515625 -0.04445313 3.2803125 -0.03515625 2.265625 C-0.02355469 1.51796875 -0.01195313 0.7703125 0 0 Z " fill="#FAA4A3" transform="translate(79,26)"/>
<path d="M0 0 C2.10296633 1.57463489 4.02997022 3.25383724 6 5 C4 6 4 6 1.125 6.3125 C-2.52824805 7.11621457 -3.73885001 8.06887964 -6 11 C-7.27825113 15.03833637 -7.11065174 19.05709461 -7.0625 23.25 C-7.05798828 23.99507812 -7.05347656 24.74015625 -7.04882812 25.5078125 C-7.03709246 27.3385764 -7.0191585 29.16929873 -7 31 C-12.875 28.125 -12.875 28.125 -14 27 C-14.57514362 20.37916063 -14.16649103 13.31410488 -12 7 C-11.02800936 5.97275408 -10.02927496 4.96984176 -9 4 C-8.67 3.01 -8.34 2.02 -8 1 C-5.04691815 -1.03660817 -3.29253002 -1.45258677 0 0 Z " fill="#37474F" transform="translate(40,53)"/>
<path d="M0 0 C0.99 0 1.98 0 3 0 C4.00577013 2.76886123 5.00480147 5.53984104 6 8.3125 C6.28617188 9.09818359 6.57234375 9.88386719 6.8671875 10.69335938 C7.13789062 11.45068359 7.40859375 12.20800781 7.6875 12.98828125 C8.06455078 14.03302612 8.06455078 14.03302612 8.44921875 15.09887695 C9 17 9 17 9 20 C5.17482487 22.39073445 1.40334476 22.55966552 -3 23 C-3.33 22.34 -3.66 21.68 -4 21 C-4.99 20.34 -5.98 19.68 -7 19 C-4.69 12.73 -2.38 6.46 0 0 Z " fill="#F9F9F9" transform="translate(118,10)"/>
<path d="M0 0 C3.21921852 0.93187904 4.65698986 1.37931498 6.3125 4.375 C7 7 7 7 7 11 C8.32 11.33 9.64 11.66 11 12 C10.47755558 15.76159981 9.7772785 18.32191002 7 21 C4.3125 21.25 4.3125 21.25 2 21 C2.309375 20.443125 2.61875 19.88625 2.9375 19.3125 C4.05761821 16.87459567 4.56037364 14.63775814 5 12 C1.0398336 10.67994453 -1.04487672 11.84073973 -5 13 C-7.9375 13.125 -7.9375 13.125 -10 13 C-10 12.01 -10 11.02 -10 10 C-8.02 9.34 -6.04 8.68 -4 8 C-4 7.34 -4 6.68 -4 6 C-4.66 6 -5.32 6 -6 6 C-5.67 5.34 -5.34 4.68 -5 4 C-3.35 4.33 -1.7 4.66 0 5 C0 3.35 0 1.7 0 0 Z " fill="#C3C1CF" transform="translate(71,94)"/>
<path d="M0 0 C1.155 0.28875 2.31 0.5775 3.5 0.875 C4.469375 1.060625 5.43875 1.24625 6.4375 1.4375 C7.118125 1.581875 7.79875 1.72625 8.5 1.875 C8.5 3.195 8.5 4.515 8.5 5.875 C7.00292969 7.24707031 7.00292969 7.24707031 4.921875 8.453125 C4.17292969 8.89140625 3.42398438 9.3296875 2.65234375 9.78125 C1.85957031 10.2246875 1.06679688 10.668125 0.25 11.125 C-0.52730469 11.58390625 -1.30460937 12.0428125 -2.10546875 12.515625 C-7.95438058 15.875 -7.95438058 15.875 -12.5 15.875 C-12.1875 13.9375 -12.1875 13.9375 -11.5 11.875 C-10.51 11.545 -9.52 11.215 -8.5 10.875 C-8.603125 9.988125 -8.70625 9.10125 -8.8125 8.1875 C-8.5 4.875 -8.5 4.875 -6.4375 1.9375 C-3.5 -0.125 -3.5 -0.125 0 0 Z " fill="#F0F0F0" transform="translate(41.5,17.125)"/>
<path d="M0 0 C1.98498051 0.92512666 3.96286018 1.86550237 5.9375 2.8125 C7.03964844 3.33457031 8.14179687 3.85664062 9.27734375 4.39453125 C12 6 12 6 13 9 C15.73178623 9 19.17789423 5.94771873 21.5625 4.5 C22.27341797 4.07074219 22.98433594 3.64148438 23.71679688 3.19921875 C25.47904911 2.13477109 27.23967595 1.06763336 29 0 C29.33 1.32 29.66 2.64 30 4 C29.09636719 4.55429688 28.19273438 5.10859375 27.26171875 5.6796875 C26.07029421 6.41142856 24.87888897 7.14320104 23.6875 7.875 C23.09259766 8.23980469 22.49769531 8.60460937 21.88476562 8.98046875 C19.22637701 10.61411539 16.59656263 12.26895824 14 14 C12.68 14 11.36 14 10 14 C10 13.34 10 12.68 10 12 C9.278125 11.896875 8.55625 11.79375 7.8125 11.6875 C4.7004075 10.92676628 2.59245848 9.87233113 0 8 C-1.09658936 4.71023192 -0.79953138 3.28696233 0 0 Z " fill="#E8EBEF" transform="translate(82,100)"/>
<path d="M0 0 C0.015625 2.66015625 0.015625 2.66015625 -1 6 C-3.49277452 8.26317686 -6.31339797 9.81387458 -9.25 11.4375 C-10.01441406 11.89576172 -10.77882813 12.35402344 -11.56640625 12.82617188 C-17.16405958 16.03104593 -17.16405958 16.03104593 -20.83984375 15.89453125 C-23.96671802 14.59967735 -26.39934116 13.17729577 -29 11 C-29.375 8.25 -29.375 8.25 -29 6 C-28.48050781 6.31195313 -27.96101563 6.62390625 -27.42578125 6.9453125 C-26.72839844 7.33460937 -26.03101562 7.72390625 -25.3125 8.125 C-24.28576172 8.71667969 -24.28576172 8.71667969 -23.23828125 9.3203125 C-20.09565375 10.27461823 -18.90481288 9.49051623 -16 8 C-12.94143813 6.29050077 -9.92177359 4.53260014 -6.90820312 2.74609375 C-2.20564332 0 -2.20564332 0 0 0 Z " fill="#F2F7FA" transform="translate(112,81)"/>
<path d="M0 0 C0 12.54 0 25.08 0 38 C-1.32 38.66 -2.64 39.32 -4 40 C-4 27.13 -4 14.26 -4 1 C-2 0 -2 0 0 0 Z " fill="#E1E1E1" transform="translate(127,30)"/>
<path d="M0 0 C0.8745745 5.07253208 0.8745745 5.07253208 0 8 C-2.99674079 10.68768465 -6.2339922 12.58255769 -10 14 C-10.99 13.67 -11.98 13.34 -13 13 C-13 10.03 -13 7.06 -13 4 C-11.59248779 3.13083113 -10.1735479 2.28014851 -8.75 1.4375 C-7.96109375 0.96183594 -7.1721875 0.48617187 -6.359375 -0.00390625 C-3.69155375 -1.13022151 -2.65498232 -1.0169313 0 0 Z " fill="#34444C" transform="translate(47,69)"/>
<path d="M0 0 C0.51171875 3.171875 0.51171875 3.171875 0 7 C-2.4018194 9.32819151 -5.22805862 10.73035226 -8.1875 12.25 C-8.95642578 12.67023438 -9.72535156 13.09046875 -10.51757812 13.5234375 C-12.00646397 14.33625415 -13.50184087 15.13731913 -15.00415039 15.92504883 C-16.67198726 16.82333454 -18.28595236 17.82070944 -19.8828125 18.83984375 C-22 20 -22 20 -24.6875 19.3125 C-27 18 -27 18 -29 16 C-27.68 16 -26.36 16 -25 16 C-25 16.66 -25 17.32 -25 18 C-20.30630427 16.18652665 -15.95521316 13.95887967 -11.5625 11.5 C-10.51191406 10.9121875 -9.46132812 10.324375 -8.37890625 9.71875 C-7.59386719 9.1515625 -6.80882813 8.584375 -6 8 C-6 7.01 -6 6.02 -6 5 C-7.51980469 5.99193359 -7.51980469 5.99193359 -9.0703125 7.00390625 C-10.42131178 7.85766274 -11.77290603 8.71047824 -13.125 9.5625 C-13.79015625 10.00013672 -14.4553125 10.43777344 -15.140625 10.88867188 C-18.54790228 13.00986901 -20.32369994 14.01925684 -24.4296875 13.90234375 C-27 13 -27 13 -28 11 C-26.02 11.66 -24.04 12.32 -22 13 C-22 12.34 -22 11.68 -22 11 C-18.7121022 9.15984502 -15.41908674 7.32904953 -12.125 5.5 C-11.18785156 4.97535156 -10.25070313 4.45070313 -9.28515625 3.91015625 C-8.38925781 3.41386719 -7.49335937 2.91757813 -6.5703125 2.40625 C-5.74289551 1.94541016 -4.91547852 1.48457031 -4.06298828 1.00976562 C-2 0 -2 0 0 0 Z " fill="#93C1E3" transform="translate(117,96)"/>
<path d="M0 0 C4.875 2.625 4.875 2.625 6 6 C12.95041086 6.26618595 19.23514355 5.6120509 26 4 C26 5.98 26 7.96 26 10 C24.78183594 10.06058594 23.56367187 10.12117188 22.30859375 10.18359375 C20.68488723 10.26806403 19.06118978 10.35270872 17.4375 10.4375 C16.63763672 10.47681641 15.83777344 10.51613281 15.01367188 10.55664062 C10.28628494 10.80748156 5.67523099 11.25321814 1 12 C1.7425 11.1028125 1.7425 11.1028125 2.5 10.1875 C4.28276418 8.02970006 4.28276418 8.02970006 4 5 C1.525 4.01 1.525 4.01 -1 3 C-0.67 2.01 -0.34 1.02 0 0 Z " fill="#F0A1A2" transform="translate(74,54)"/>
<path d="M0 0 C0.33 0 0.66 0 1 0 C1.2852991 3.37920934 1.42276957 6.62868367 1 10 C-1.0625 12.1875 -1.0625 12.1875 -4 13 C-7.8125 12.6875 -7.8125 12.6875 -11 12 C-10.34 11.01 -9.68 10.02 -9 9 C-9.66 8.34 -10.32 7.68 -11 7 C-11 5.68 -11 4.36 -11 3 C-5.555 2.505 -5.555 2.505 0 2 C0 1.34 0 0.68 0 0 Z " fill="#E0E0E0" transform="translate(126,77)"/>
<path d="M0 0 C4.03520597 1.58962659 8.01811282 3.28232318 12 5 C12 7.31 12 9.62 12 12 C7.20972174 11.41936021 3.95692942 9.66331788 0 7 C-1.44277703 4.02427237 -1.06876751 3.20630252 0 0 Z " fill="#072B47" transform="translate(83,94)"/>
<path d="M0 0 C5.98993047 -0.3152595 9.63560356 0.31780178 15 3 C15 4.65 15 6.3 15 8 C13.02 8.99 13.02 8.99 11 10 C10.67 8.68 10.34 7.36 10 6 C5.545 5.01 5.545 5.01 1 4 C1 6.31 1 8.62 1 11 C0.67 11 0.34 11 0 11 C0 7.37 0 3.74 0 0 Z " fill="#293238" transform="translate(79,26)"/>
<path d="M0 0 C1.8125 0.5 1.8125 0.5 4 2 C5.85946691 5.60223088 7 8.93833348 7 13 C5.02 13.33 3.04 13.66 1 14 C-2.61643836 6.31506849 -2.61643836 6.31506849 -2 2 C-1.34 1.34 -0.68 0.68 0 0 Z " fill="#0775CE" transform="translate(93,45)"/>
<path d="M0 0 C0.33 1.32 0.66 2.64 1 4 C-1.05952358 5.29662538 -3.12237057 6.58735727 -5.1875 7.875 C-5.76564453 8.23980469 -6.34378906 8.60460937 -6.93945312 8.98046875 C-10.20278033 11.0085252 -13.38059362 12.70492051 -17 14 C-17 12.68 -17 11.36 -17 10 C-15.43945312 8.62792969 -15.43945312 8.62792969 -13.28125 7.421875 C-12.51425781 6.98359375 -11.74726562 6.5453125 -10.95703125 6.09375 C-10.14621094 5.6503125 -9.33539063 5.206875 -8.5 4.75 C-7.68917969 4.29109375 -6.87835938 3.8321875 -6.04296875 3.359375 C-4.03580331 2.22591687 -2.02180882 1.10706053 0 0 Z " fill="#F7FAFD" transform="translate(111,100)"/>
<path d="M0 0 C1.93166016 0.01740234 1.93166016 0.01740234 3.90234375 0.03515625 C5.19269531 0.04417969 6.48304687 0.05320313 7.8125 0.0625 C8.81152344 0.07410156 9.81054688 0.08570313 10.83984375 0.09765625 C10.17984375 1.74765625 9.51984375 3.39765625 8.83984375 5.09765625 C0.64728357 5.72785319 0.64728357 5.72785319 -2.72265625 3.09765625 C-3.43421875 2.10765625 -3.43421875 2.10765625 -4.16015625 1.09765625 C-3.16015625 0.09765625 -3.16015625 0.09765625 0 0 Z " fill="#273339" transform="translate(85.16015625,63.90234375)"/>
<path d="M0 0 C1.03125 0.515625 2.0625 1.03125 3.125 1.5625 C7.84382593 3.59713547 11.23882822 2.58705726 16 1 C15.6875 2.875 15.6875 2.875 15 5 C11.27420911 7.48386059 9.41288598 7.3804212 5 7 C2.0625 5.75 2.0625 5.75 0 4 C0 2.68 0 1.36 0 0 Z " fill="#F4F4F4" transform="translate(111,67)"/>
<path d="M0 0 C1.98 0.99 1.98 0.99 4 2 C5.0828125 2.433125 5.0828125 2.433125 6.1875 2.875 C8 4 8 4 8.75 6.125 C8.87375 7.053125 8.87375 7.053125 9 8 C6.09399739 9.25664978 4.20395416 10 1 10 C0.67 6.7 0.34 3.4 0 0 Z " fill="#1D3444" transform="translate(70,55)"/>
<path d="M0 0 C1.65581725 0.70620155 3.29951386 1.44087238 4.9375 2.1875 C5.85402344 2.59355469 6.77054687 2.99960938 7.71484375 3.41796875 C10 5 10 5 10.81640625 7.67578125 C10.87699219 8.44277344 10.93757813 9.20976563 11 10 C6.4864823 9.46899792 3.48177056 7.91497071 0 5 C-0.16796875 2.359375 -0.16796875 2.359375 0 0 Z " fill="#E4EAEF" transform="translate(83,87)"/>
<path d="M0 0 C0 3 0 3 -1.9375 5.3125 C-4.23969228 8.3123263 -4.65447048 10.28555769 -5 14 C-6.32 13.34 -7.64 12.68 -9 12 C-9.5625 9.375 -9.5625 9.375 -9 6 C-6.2279485 3.60079753 -3.19327746 1.78671477 0 0 Z " fill="#0D75C4" transform="translate(81,74)"/>
<path d="M0 0 C2.97 0.33 5.94 0.66 9 1 C9.33 2.32 9.66 3.64 10 5 C9.34 5 8.68 5 8 5 C8 5.66 8 6.32 8 7 C5.69 6.67 3.38 6.34 1 6 C0.67 4.02 0.34 2.04 0 0 Z " fill="#D39090" transform="translate(80,30)"/>
<path d="M0 0 C-0.33 1.65 -0.66 3.3 -1 5 C-4.3 5.33 -7.6 5.66 -11 6 C-11 5.01 -11 4.02 -11 3 C-7.14243493 0.84694043 -4.44870215 -0.39253254 0 0 Z " fill="#343F45" transform="translate(72,101)"/>
<path d="M0 0 C1.65 0 3.3 0 5 0 C4.40269644 3.34489996 3.42082645 5.57917355 1 8 C-1.6875 8.25 -1.6875 8.25 -4 8 C-2.66666667 5.33333333 -1.33333333 2.66666667 0 0 Z " fill="#303A3F" transform="translate(77,107)"/>
<path d="M0 0 C1.98498051 0.92512666 3.96286018 1.86550237 5.9375 2.8125 C7.03964844 3.33457031 8.14179687 3.85664062 9.27734375 4.39453125 C12 6 12 6 13 9 C11.39402675 8.54803755 9.79027492 8.08817673 8.1875 7.625 C7.29417969 7.36976562 6.40085937 7.11453125 5.48046875 6.8515625 C3 6 3 6 0 4 C0 2.68 0 1.36 0 0 Z " fill="#B1D2EB" transform="translate(82,100)"/>
<path d="M0 0 C0.49628906 0.30035156 0.99257812 0.60070312 1.50390625 0.91015625 C6.55846884 3.73956036 9.36344696 4.40913826 15 3 C14.9278125 3.69867188 14.855625 4.39734375 14.78125 5.1171875 C14.6884375 6.02726562 14.595625 6.93734375 14.5 7.875 C14.4071875 8.77992187 14.314375 9.68484375 14.21875 10.6171875 C13.96952705 12.93313211 13.96952705 12.93313211 14 15 C13.01 14.67 12.02 14.34 11 14 C11 11.69 11 9.38 11 7 C10.45730469 6.80664062 9.91460937 6.61328125 9.35546875 6.4140625 C8.64003906 6.15367188 7.92460938 5.89328125 7.1875 5.625 C6.47980469 5.36976562 5.77210937 5.11453125 5.04296875 4.8515625 C3 4 3 4 0 2 C0 1.34 0 0.68 0 0 Z " fill="#0C5083" transform="translate(83,92)"/>
<path d="M0 0 C0.33 1.32 0.66 2.64 1 4 C-3.71538326 8.02194454 -7.66202939 11 -14 11 C-14 10.01 -14 9.02 -14 8 C-13.319375 7.9175 -12.63875 7.835 -11.9375 7.75 C-9.28231457 7.07208032 -7.63219434 6.31087552 -5.3125 4.9375 C-2 3 -2 3 0 3 C0 2.01 0 1.02 0 0 Z " fill="#4C5F69" transform="translate(47,74)"/>
<path d="M0 0 C0.33 0.66 0.66 1.32 1 2 C1.99 2.33 2.98 2.66 4 3 C4.8125 4.8125 4.8125 4.8125 5 7 C4.0625 9.25 4.0625 9.25 3 11 C2.01 11 1.02 11 0 11 C0 7.37 0 3.74 0 0 Z " fill="#033053" transform="translate(37,102)"/>
<path d="M0 0 C2.0625 0.4375 2.0625 0.4375 4 1 C3.360625 1.28875 2.72125 1.5775 2.0625 1.875 C-0.15206079 2.82823451 -0.15206079 2.82823451 -1 5 C-1.22622081 6.70363822 -1.40888473 8.41328701 -1.5625 10.125 C-1.64628906 11.03507812 -1.73007813 11.94515625 -1.81640625 12.8828125 C-1.87699219 13.58148438 -1.93757813 14.28015625 -2 15 C-3.65 14.01 -5.3 13.02 -7 12 C-6.02296079 10.1863523 -5.04330895 8.37411183 -4.0625 6.5625 C-3.51722656 5.55316406 -2.97195312 4.54382812 -2.41015625 3.50390625 C-1 1 -1 1 0 0 Z " fill="#0576D2" transform="translate(81,42)"/>
<path d="M0 0 C0.33 0.99 0.66 1.98 1 3 C-0.70828921 5.10633718 -1.52148416 5.93801608 -4.26171875 6.29296875 C-5.06222656 6.25816406 -5.86273438 6.22335938 -6.6875 6.1875 C-7.49574219 6.16042969 -8.30398437 6.13335937 -9.13671875 6.10546875 C-9.75160156 6.07066406 -10.36648437 6.03585938 -11 6 C-11 5.01 -11 4.02 -11 3 C-10.37351562 2.95101562 -9.74703125 2.90203125 -9.1015625 2.8515625 C-8.28429687 2.77679688 -7.46703125 2.70203125 -6.625 2.625 C-5.81289062 2.55539063 -5.00078125 2.48578125 -4.1640625 2.4140625 C-1.79665809 2.17107412 -1.79665809 2.17107412 0 0 Z " fill="#F3F3F3" transform="translate(126,74)"/>
<path d="M0 0 C0 2.31 0 4.62 0 7 C-1.32 7.33 -2.64 7.66 -4 8 C-4 6.68 -4 5.36 -4 4 C-4.66 4 -5.32 4 -6 4 C-6 3.34 -6 2.68 -6 2 C-2.25 0 -2.25 0 0 0 Z " fill="#79ABD1" transform="translate(117,96)"/>
<path d="M0 0 C0.99 0.33 1.98 0.66 3 1 C2.67 4.96 2.34 8.92 2 13 C1.67 13 1.34 13 1 13 C0.566875 11.576875 0.566875 11.576875 0.125 10.125 C-0.76825109 6.94788422 -0.76825109 6.94788422 -3 5 C-2.75 2.9375 -2.75 2.9375 -2 1 C-1.34 0.67 -0.68 0.34 0 0 Z " fill="#BAD1E3" transform="translate(35,99)"/>
<path d="M0 0 C2.475 0.99 2.475 0.99 5 2 C5 3.98 5 5.96 5 8 C2.525 7.01 2.525 7.01 0 6 C0 4.02 0 2.04 0 0 Z " fill="#0B2D46" transform="translate(72,88)"/>
<path d="M0 0 C0.66 0.33 1.32 0.66 2 1 C-0.97 3.97 -3.94 6.94 -7 10 C-7.99 9.01 -8.98 8.02 -10 7 C-6.7 4.69 -3.4 2.38 0 0 Z " fill="#2C6FA0" transform="translate(73,67)"/>
<path d="M0 0 C0.28875 0.969375 0.5775 1.93875 0.875 2.9375 C1.64214682 6.10664203 1.64214682 6.10664203 4 7 C0.625 6.75 0.625 6.75 -3 6 C-4.4375 3.9375 -4.4375 3.9375 -5 2 C-2 0 -2 0 0 0 Z " fill="#EB9FA2" transform="translate(64,59)"/>
<path d="M0 0 C0.33 0.99 0.66 1.98 1 3 C-0.43011973 3.86646667 -1.86940619 4.71781829 -3.3125 5.5625 C-4.51326172 6.27599609 -4.51326172 6.27599609 -5.73828125 7.00390625 C-8 8 -8 8 -11 7 C-7.53258866 4.04250209 -4.13126473 1.92151848 0 0 Z " fill="#003158" transform="translate(57,89)"/>
<path d="M0 0 C1.98 0.495 1.98 0.495 4 1 C4.33 2.98 4.66 4.96 5 7 C3.35 7.66 1.7 8.32 0 9 C0.33 7.02 0.66 5.04 1 3 C0.34 2.67 -0.32 2.34 -1 2 C-0.67 1.34 -0.34 0.68 0 0 Z " fill="#195C8F" transform="translate(111,78)"/>
<path d="M0 0 C0.99 0 1.98 0 3 0 C3.33 1.98 3.66 3.96 4 6 C2.68 6.33 1.36 6.66 0 7 C-1.125 2.25 -1.125 2.25 0 0 Z " fill="#E0E0E0" transform="translate(118,10)"/>
<path d="M0 0 C2.4375 0.75 2.4375 0.75 5 2 C5.8125 4.125 5.8125 4.125 6 6 C2 6 2 6 -1 4 C-0.67 2.68 -0.34 1.36 0 0 Z " fill="#0C406C" transform="translate(73,57)"/>
<path d="M0 0 C4.1970092 -0.35281338 6.06522073 0.35814568 9.3125 3 C10.00988281 3.556875 10.70726563 4.11375 11.42578125 4.6875 C11.94527344 5.120625 12.46476562 5.55375 13 6 C12.01 6.495 12.01 6.495 11 7 C9.26248404 6.0165004 7.52728244 5.02779688 5.8203125 3.9921875 C3.59619686 2.77990129 1.50491766 2.30362638 -1 2 C-0.67 1.34 -0.34 0.68 0 0 Z " fill="#2384CF" transform="translate(102,72)"/>
<path d="M0 0 C3.0831351 1.19899698 6.06279492 2.47700477 9 4 C9 4.66 9 5.32 9 6 C5.65626525 5.44271087 2.96687001 4.64826111 0 3 C0 2.01 0 1.02 0 0 Z " fill="#002745" transform="translate(34,92)"/>
<path d="M0 0 C2.4375 0.75 2.4375 0.75 5 2 C5.8125 4.125 5.8125 4.125 6 6 C4.02 5.34 2.04 4.68 0 4 C0 2.68 0 1.36 0 0 Z " fill="#9FC2DE" transform="translate(71,94)"/>
<path d="M0 0 C1.32 0.33 2.64 0.66 4 1 C4 2.98 4 4.96 4 7 C2.68 6.34 1.36 5.68 0 5 C0 3.35 0 1.7 0 0 Z " fill="#DCE4EB" transform="translate(72,81)"/>
<path d="M0 0 C-1.39796892 2.79593783 -3.13474989 2.95173777 -6 4 C-6.99 4.495 -6.99 4.495 -8 5 C-8 3.68 -8 2.36 -8 1 C-4.93251126 -0.86240388 -3.40254489 -1.2151946 0 0 Z " fill="#425861" transform="translate(40,53)"/>
<path d="M0 0 C0.66 0 1.32 0 2 0 C1.125 5.875 1.125 5.875 0 7 C-1.66617115 7.04063832 -3.33388095 7.042721 -5 7 C-4.360625 6.21625 -3.72125 5.4325 -3.0625 4.625 C-1.01857687 2.20460719 -1.01857687 2.20460719 0 0 Z " fill="#CB8A8A" transform="translate(90,38)"/>
<path d="M0 0 C2.4375 0.8125 2.4375 0.8125 5 2 C5.33 2.99 5.66 3.98 6 5 C4.35 4.67 2.7 4.34 1 4 C0.67 2.68 0.34 1.36 0 0 Z " fill="#084473" transform="translate(34,95)"/>
<path d="M0 0 C0.33 0 0.66 0 1 0 C1 2.31 1 4.62 1 7 C-0.32 6.67 -1.64 6.34 -3 6 C-2 4 -1 2 0 0 Z " fill="#1D4B6F" transform="translate(49,101)"/>
</svg>
